<?xml version="1.0" encoding="UTF-8"?>
<!DOCTYPE svg PUBLIC "-//W3C//DTD SVG 1.1//EN" "http://www.w3.org/Graphics/SVG/1.1/DTD/svg11.dtd">
<!-- Creator: CorelDRAW -->
<svg xmlns="http://www.w3.org/2000/svg" xml:space="preserve" width="413px" height="80px" version="1.1" style="shape-rendering:geometricPrecision; text-rendering:geometricPrecision; image-rendering:optimizeQuality; fill-rule:evenodd; clip-rule:evenodd"
viewBox="0 0 363.16 70.45"
 xmlns:xlink="http://www.w3.org/1999/xlink"
 xmlns:xodm="http://www.corel.com/coreldraw/odm/2003">
 <defs>
  <style type="text/css">
   <![CDATA[
    .fil0 {fill:red}
   ]]>
  </style>
 </defs>
 <g id="Layer_x0020_1">
  <metadata id="CorelCorpID_0Corel-Layer"/>
  <g id="_1583735200336">
   <g>
    <path class="fil0" d="M254.83 0l24.72 33.76 -25.41 36.69 -218.91 0c-19.38,0 -35.23,-15.85 -35.23,-35.23l0 0c0,-19.37 15.85,-35.22 35.23,-35.22l219.6 0 0 0zm-203.67 27.11c-2.16,-2.22 -4.35,-3.86 -6.55,-4.94 -2.22,-1.07 -4.55,-1.61 -6.98,-1.61 -4.21,0 -7.67,1.46 -10.34,4.37 -2.69,2.91 -4.03,6.66 -4.03,11.21 0,4.57 1.33,8.27 3.99,11.1 2.66,2.83 6.12,4.25 10.39,4.25 2.53,0 5.04,-0.53 7.55,-1.59 2.52,-1.05 5.02,-2.64 7.52,-4.75l-0.76 13.24c-2.14,1.45 -4.47,2.55 -7,3.3 -2.54,0.76 -5.17,1.14 -7.91,1.14 -2.93,0 -5.74,-0.46 -8.44,-1.37 -2.69,-0.92 -5.18,-2.28 -7.44,-4.07 -3.22,-2.52 -5.67,-5.6 -7.39,-9.24 -1.7,-3.63 -2.56,-7.59 -2.56,-11.88 0,-3.7 0.64,-7.16 1.89,-10.39 1.27,-3.23 3.1,-6.09 5.51,-8.57 2.43,-2.48 5.24,-4.37 8.43,-5.7 3.18,-1.31 6.54,-1.97 10.07,-1.97 2.81,0 5.48,0.39 8.02,1.17 2.55,0.78 4.98,1.96 7.3,3.55l-1.27 12.75zm203.67 -27.11l-0.11 11.33 1.68 0 0 10.29 -1.78 0 -0.28 29.09 2.35 0 0 10.5 -2.46 0 -0.09 9.24 0.09 -9.24 -28.54 0 0 -49.88 29.03 0 0.11 -11.33 0 0zm-185.23 36.27c0,4.33 1.27,7.97 3.81,10.9 2.53,2.92 5.66,4.39 9.37,4.39 3.73,0 6.87,-1.46 9.39,-4.37 2.53,-2.92 3.78,-6.56 3.78,-10.92 0,-4.38 -1.25,-8.04 -3.78,-10.97 -2.52,-2.92 -5.66,-4.39 -9.39,-4.39 -3.71,0 -6.84,1.47 -9.37,4.39 -2.54,2.93 -3.81,6.59 -3.81,10.97zm-12.25 0c0,-3.7 0.63,-7.15 1.91,-10.37 1.27,-3.23 3.15,-6.1 5.62,-8.65 2.34,-2.43 5.07,-4.3 8.16,-5.59 3.09,-1.3 6.35,-1.95 9.74,-1.95 3.39,0 6.64,0.66 9.76,1.96 3.11,1.31 5.87,3.2 8.27,5.65 2.43,2.45 4.28,5.28 5.52,8.51 1.26,3.22 1.88,6.71 1.88,10.44 0,3.12 -0.43,6.06 -1.3,8.81 -0.88,2.74 -2.18,5.26 -3.9,7.54 -2.43,3.22 -5.41,5.74 -8.96,7.52 -3.55,1.8 -7.3,2.69 -11.27,2.69 -3.37,0 -6.6,-0.66 -9.69,-1.96 -3.09,-1.3 -5.82,-3.19 -8.21,-5.65 -2.47,-2.54 -4.35,-5.41 -5.62,-8.62 -1.28,-3.19 -1.91,-6.64 -1.91,-10.33l0 0zm59.16 24.94l0 -51.5 1.14 0 31.06 29.11 0 -27.49 10.99 0 0 51.78 -1.03 0 -31.17 -29.1 0 27.2 -10.99 0zm54.59 0l0 -51.5 1.14 0 31.06 29.11 0 -27.49 10.99 0 0 51.78 -1.04 0 -31.16 -29.1 0 27.2 -10.99 0 0 0zm83.52 -39.59l-17.38 0 0 9.01 16.42 0 0 10.22 -16.42 0 0 9.86 17.1 0 0.28 -29.09 0 0z"/>
   </g>
   <path class="fil0" d="M268.6 0l94.56 0 0 70.45 -95.73 0 18.53 -27.21 12.12 16.92 14.65 0 -19.65 -26.83 16.06 -23.04 -12.96 0 -9.67 14.24 -17.91 -24.53 0 0zm58.87 60.16l0 -39.45 -15.85 0 0 -10.42 43.54 0 0 10.42 -15.78 0 0 39.45 -11.91 0z"/>
  </g>
 </g>
</svg>
